<mxfile host="www.draw.io" modified="2020-01-30T23:52:21.115Z" agent="Mozilla/5.0 (Windows NT 10.0; Win64; x64) AppleWebKit/537.36 (KHTML, like Gecko) Chrome/79.0.3945.130 Safari/537.36" etag="Fr0e0mVIlswI1ww6WiKj" version="12.6.2" type="github">
  <diagram id="pEdrLrNa93Opo544BcHM" name="Page-1">
    <mxGraphModel dx="1919" dy="577" grid="1" gridSize="10" guides="1" tooltips="1" connect="1" arrows="1" fold="1" page="1" pageScale="1" pageWidth="850" pageHeight="1100" math="0" shadow="0">
      <root>
        <mxCell id="0"/>
        <mxCell id="1" parent="0"/>
        <mxCell id="yhGkoqOSeWeYSa07yg06-131" value="" style="shape=image;html=1;verticalAlign=top;verticalLabelPosition=bottom;labelBackgroundColor=#ffffff;imageAspect=0;aspect=fixed;image=https://cdn2.iconfinder.com/data/icons/interface-12/24/interface-45-128.png;fillColor=#000000;" vertex="1" parent="1">
          <mxGeometry x="496" y="575.83" width="164.17" height="164.17" as="geometry"/>
        </mxCell>
        <mxCell id="yhGkoqOSeWeYSa07yg06-2" value="" style="verticalLabelPosition=bottom;shadow=0;dashed=0;align=center;html=1;verticalAlign=top;strokeWidth=1;shape=mxgraph.mockup.graphics.bubbleChart;strokeColor=none;strokeColor2=none;strokeColor3=#666666;fillColor2=#008cff;fillColor3=#dddddd;" vertex="1" parent="1">
          <mxGeometry x="108.22" y="80" width="180" height="280" as="geometry"/>
        </mxCell>
        <mxCell id="yhGkoqOSeWeYSa07yg06-1" value="" style="verticalLabelPosition=bottom;verticalAlign=top;html=1;shadow=0;dashed=0;strokeWidth=1;shape=mxgraph.android.phone2;strokeColor=#c0c0c0;" vertex="1" parent="1">
          <mxGeometry x="100" y="30" width="200" height="390" as="geometry"/>
        </mxCell>
        <mxCell id="yhGkoqOSeWeYSa07yg06-5" value="" style="ellipse;whiteSpace=wrap;html=1;aspect=fixed;" vertex="1" parent="1">
          <mxGeometry x="240" y="290" width="40" height="40" as="geometry"/>
        </mxCell>
        <mxCell id="yhGkoqOSeWeYSa07yg06-8" value="" style="verticalLabelPosition=bottom;verticalAlign=top;html=1;shadow=0;dashed=0;strokeWidth=1;shape=mxgraph.android.phone2;strokeColor=#c0c0c0;" vertex="1" parent="1">
          <mxGeometry x="450" y="30" width="200" height="390" as="geometry"/>
        </mxCell>
        <mxCell id="yhGkoqOSeWeYSa07yg06-9" value="" style="verticalLabelPosition=bottom;shadow=0;dashed=0;align=center;html=1;verticalAlign=top;strokeWidth=1;shape=mxgraph.mockup.graphics.bubbleChart;strokeColor=none;strokeColor2=none;strokeColor3=#666666;fillColor2=#008cff;fillColor3=#dddddd;fillColor=#FFFFFF;" vertex="1" parent="1">
          <mxGeometry x="460" y="70" width="180" height="290" as="geometry"/>
        </mxCell>
        <mxCell id="yhGkoqOSeWeYSa07yg06-10" value="Calendar" style="swimlane;fillColor=#99FF99;" vertex="1" parent="1">
          <mxGeometry x="480" y="110" width="160" height="180" as="geometry">
            <mxRectangle x="475" y="110" width="80" height="23" as="alternateBounds"/>
          </mxGeometry>
        </mxCell>
        <mxCell id="yhGkoqOSeWeYSa07yg06-32" value="" style="whiteSpace=wrap;html=1;aspect=fixed;fillColor=#FFFFFF;" vertex="1" parent="yhGkoqOSeWeYSa07yg06-10">
          <mxGeometry y="20" width="160" height="160" as="geometry"/>
        </mxCell>
        <mxCell id="yhGkoqOSeWeYSa07yg06-12" value="Opens calendar to select date" style="whiteSpace=wrap;html=1;shape=mxgraph.basic.rectCallout;dx=30;dy=15;boundedLbl=1;" vertex="1" parent="yhGkoqOSeWeYSa07yg06-10">
          <mxGeometry x="37" y="40" width="95" height="60" as="geometry"/>
        </mxCell>
        <mxCell id="yhGkoqOSeWeYSa07yg06-14" value="Cancel" style="labelPosition=center;verticalLabelPosition=middle;align=center;html=1;shape=mxgraph.basic.shaded_button;dx=10;fillColor=#E6E6E6;strokeColor=none;" vertex="1" parent="yhGkoqOSeWeYSa07yg06-10">
          <mxGeometry x="42.5" y="120" width="50" height="40" as="geometry"/>
        </mxCell>
        <mxCell id="yhGkoqOSeWeYSa07yg06-13" value="Ok" style="labelPosition=center;verticalLabelPosition=middle;align=center;html=1;shape=mxgraph.basic.shaded_button;dx=10;fillColor=#E6E6E6;strokeColor=none;" vertex="1" parent="yhGkoqOSeWeYSa07yg06-10">
          <mxGeometry x="110" y="120.00000000000006" width="40" height="40" as="geometry"/>
        </mxCell>
        <mxCell id="yhGkoqOSeWeYSa07yg06-34" value="" style="rounded=0;whiteSpace=wrap;html=1;fillColor=#FFFFFF;" vertex="1" parent="yhGkoqOSeWeYSa07yg06-10">
          <mxGeometry x="-20" y="-30" width="180" height="30" as="geometry"/>
        </mxCell>
        <mxCell id="yhGkoqOSeWeYSa07yg06-42" value="" style="shape=image;html=1;verticalAlign=top;verticalLabelPosition=bottom;labelBackgroundColor=#ffffff;imageAspect=0;aspect=fixed;image=https://cdn2.iconfinder.com/data/icons/arrows-and-universal-actions-icon-set/256/more_circle-128.png;fillColor=#FFFFFF;direction=south;" vertex="1" parent="yhGkoqOSeWeYSa07yg06-10">
          <mxGeometry x="132" y="-23.799999999999955" width="18" height="18" as="geometry"/>
        </mxCell>
        <mxCell id="yhGkoqOSeWeYSa07yg06-53" value="Image" style="text;html=1;align=center;verticalAlign=middle;resizable=0;points=[];autosize=1;" vertex="1" parent="yhGkoqOSeWeYSa07yg06-10">
          <mxGeometry x="-13" y="-25" width="50" height="20" as="geometry"/>
        </mxCell>
        <mxCell id="yhGkoqOSeWeYSa07yg06-16" value="" style="rounded=0;whiteSpace=wrap;html=1;fillColor=#FFFFFF;" vertex="1" parent="1">
          <mxGeometry x="110" y="342" width="180" height="40" as="geometry"/>
        </mxCell>
        <mxCell id="yhGkoqOSeWeYSa07yg06-17" value="" style="shape=image;html=1;verticalAlign=top;verticalLabelPosition=bottom;labelBackgroundColor=#ffffff;imageAspect=0;aspect=fixed;image=https://cdn4.iconfinder.com/data/icons/evil-icons-user-interface/64/picture-128.png;fillColor=#FFFFFF;" vertex="1" parent="1">
          <mxGeometry x="130" y="348" width="28" height="28" as="geometry"/>
        </mxCell>
        <mxCell id="yhGkoqOSeWeYSa07yg06-18" value="" style="shape=image;html=1;verticalAlign=top;verticalLabelPosition=bottom;labelBackgroundColor=#ffffff;imageAspect=0;aspect=fixed;image=https://cdn3.iconfinder.com/data/icons/google-material-design-icons/48/ic_dashboard_48px-128.png;fillColor=#FFFFFF;" vertex="1" parent="1">
          <mxGeometry x="240" y="350" width="24" height="24" as="geometry"/>
        </mxCell>
        <mxCell id="yhGkoqOSeWeYSa07yg06-20" value="" style="rounded=0;whiteSpace=wrap;html=1;fillColor=#FFFFFF;" vertex="1" parent="1">
          <mxGeometry x="460" y="342" width="180" height="40" as="geometry"/>
        </mxCell>
        <mxCell id="yhGkoqOSeWeYSa07yg06-22" value="" style="shape=image;html=1;verticalAlign=top;verticalLabelPosition=bottom;labelBackgroundColor=#ffffff;imageAspect=0;aspect=fixed;image=https://cdn3.iconfinder.com/data/icons/google-material-design-icons/48/ic_dashboard_48px-128.png;fillColor=#FFFFFF;" vertex="1" parent="1">
          <mxGeometry x="586" y="350" width="24" height="24" as="geometry"/>
        </mxCell>
        <mxCell id="yhGkoqOSeWeYSa07yg06-23" value="" style="shape=image;html=1;verticalAlign=top;verticalLabelPosition=bottom;labelBackgroundColor=#ffffff;imageAspect=0;aspect=fixed;image=https://cdn4.iconfinder.com/data/icons/evil-icons-user-interface/64/picture-128.png;fillColor=#FFFFFF;" vertex="1" parent="1">
          <mxGeometry x="482" y="348" width="28" height="28" as="geometry"/>
        </mxCell>
        <mxCell id="yhGkoqOSeWeYSa07yg06-24" value="" style="verticalLabelPosition=bottom;verticalAlign=top;html=1;shadow=0;dashed=0;strokeWidth=1;shape=mxgraph.android.phone2;strokeColor=#c0c0c0;fillColor=#FFFFFF;" vertex="1" parent="1">
          <mxGeometry x="100" y="498" width="200" height="390" as="geometry"/>
        </mxCell>
        <mxCell id="yhGkoqOSeWeYSa07yg06-26" value="APoD Image" style="whiteSpace=wrap;html=1;shape=mxgraph.basic.rectCallout;dx=24.6;dy=41;boundedLbl=1;fillColor=#FFFFFF;direction=north;" vertex="1" parent="1">
          <mxGeometry x="-20" y="70" width="140" height="50" as="geometry"/>
        </mxCell>
        <mxCell id="yhGkoqOSeWeYSa07yg06-28" value="" style="rounded=0;whiteSpace=wrap;html=1;fillColor=#FFFFFF;" vertex="1" parent="1">
          <mxGeometry x="111" y="80" width="180" height="30" as="geometry"/>
        </mxCell>
        <mxCell id="yhGkoqOSeWeYSa07yg06-29" value="" style="strokeWidth=1;html=1;shadow=0;dashed=0;shape=mxgraph.android.statusBar;align=center;fillColor=#000000;strokeColor=#ffffff;fontColor=#ffffff;fontSize=10;" vertex="1" parent="1">
          <mxGeometry x="108.22000000000001" y="64.17" width="183.57" height="15.825" as="geometry"/>
        </mxCell>
        <mxCell id="yhGkoqOSeWeYSa07yg06-30" value="" style="strokeWidth=1;html=1;shadow=0;dashed=0;shape=mxgraph.android.statusBar;align=center;fillColor=#000000;strokeColor=#ffffff;fontColor=#ffffff;fontSize=10;" vertex="1" parent="1">
          <mxGeometry x="108.22" y="530" width="183.57" height="15.825" as="geometry"/>
        </mxCell>
        <mxCell id="yhGkoqOSeWeYSa07yg06-31" value="" style="strokeWidth=1;html=1;shadow=0;dashed=0;shape=mxgraph.android.statusBar;align=center;fillColor=#000000;strokeColor=#ffffff;fontColor=#ffffff;fontSize=10;" vertex="1" parent="1">
          <mxGeometry x="460" y="64.17" width="180" height="15.83" as="geometry"/>
        </mxCell>
        <mxCell id="yhGkoqOSeWeYSa07yg06-33" value="" style="shape=image;html=1;verticalAlign=top;verticalLabelPosition=bottom;labelBackgroundColor=#ffffff;imageAspect=0;aspect=fixed;image=https://cdn1.iconfinder.com/data/icons/material-core/20/today-128.png;fillColor=#FFFFFF;" vertex="1" parent="1">
          <mxGeometry x="250" y="300" width="20" height="20" as="geometry"/>
        </mxCell>
        <mxCell id="yhGkoqOSeWeYSa07yg06-38" value="" style="ellipse;whiteSpace=wrap;html=1;aspect=fixed;" vertex="1" parent="1">
          <mxGeometry x="586" y="290" width="40" height="40" as="geometry"/>
        </mxCell>
        <mxCell id="yhGkoqOSeWeYSa07yg06-39" value="" style="shape=image;html=1;verticalAlign=top;verticalLabelPosition=bottom;labelBackgroundColor=#ffffff;imageAspect=0;aspect=fixed;image=https://cdn1.iconfinder.com/data/icons/material-core/20/today-128.png;fillColor=#FFFFFF;" vertex="1" parent="1">
          <mxGeometry x="596" y="300" width="20" height="20" as="geometry"/>
        </mxCell>
        <mxCell id="yhGkoqOSeWeYSa07yg06-40" value="" style="rounded=0;whiteSpace=wrap;html=1;fillColor=#FFFFFF;" vertex="1" parent="1">
          <mxGeometry x="110.00999999999999" y="545.83" width="180" height="30" as="geometry"/>
        </mxCell>
        <mxCell id="yhGkoqOSeWeYSa07yg06-41" value="" style="shape=image;html=1;verticalAlign=top;verticalLabelPosition=bottom;labelBackgroundColor=#ffffff;imageAspect=0;aspect=fixed;image=https://cdn2.iconfinder.com/data/icons/arrows-and-universal-actions-icon-set/256/more_circle-128.png;fillColor=#FFFFFF;direction=south;" vertex="1" parent="1">
          <mxGeometry x="264" y="551.83" width="18" height="18" as="geometry"/>
        </mxCell>
        <mxCell id="yhGkoqOSeWeYSa07yg06-43" value="" style="shape=image;html=1;verticalAlign=top;verticalLabelPosition=bottom;labelBackgroundColor=#ffffff;imageAspect=0;aspect=fixed;image=https://cdn2.iconfinder.com/data/icons/arrows-and-universal-actions-icon-set/256/more_circle-128.png;fillColor=#FFFFFF;direction=south;" vertex="1" parent="1">
          <mxGeometry x="264" y="86" width="18" height="18" as="geometry"/>
        </mxCell>
        <mxCell id="yhGkoqOSeWeYSa07yg06-48" value="" style="endArrow=classic;html=1;entryX=0;entryY=0;entryDx=15;entryDy=60;entryPerimeter=0;" edge="1" parent="1" target="yhGkoqOSeWeYSa07yg06-12">
          <mxGeometry width="50" height="50" relative="1" as="geometry">
            <mxPoint x="270" y="300" as="sourcePoint"/>
            <mxPoint x="320" y="250" as="targetPoint"/>
          </mxGeometry>
        </mxCell>
        <mxCell id="yhGkoqOSeWeYSa07yg06-49" value="Image" style="text;html=1;align=center;verticalAlign=middle;resizable=0;points=[];autosize=1;" vertex="1" parent="1">
          <mxGeometry x="119" y="86" width="50" height="20" as="geometry"/>
        </mxCell>
        <mxCell id="yhGkoqOSeWeYSa07yg06-52" value="Dashboard" style="text;html=1;align=center;verticalAlign=middle;resizable=0;points=[];autosize=1;" vertex="1" parent="1">
          <mxGeometry x="111" y="550.83" width="70" height="20" as="geometry"/>
        </mxCell>
        <mxCell id="yhGkoqOSeWeYSa07yg06-56" value="" style="html=1;verticalLabelPosition=bottom;labelBackgroundColor=#ffffff;verticalAlign=top;shadow=0;dashed=0;strokeWidth=1;shape=mxgraph.ios7ui.iconGrid;fillColor=#c0c0c0;gridSize=3,3;" vertex="1" parent="1">
          <mxGeometry x="112.5" y="580.34" width="175" height="217.17" as="geometry"/>
        </mxCell>
        <mxCell id="yhGkoqOSeWeYSa07yg06-57" value="" style="ellipse;whiteSpace=wrap;html=1;aspect=fixed;fillColor=#FFFFFF;" vertex="1" parent="1">
          <mxGeometry x="250" y="770" width="35" height="35" as="geometry"/>
        </mxCell>
        <mxCell id="yhGkoqOSeWeYSa07yg06-55" value="" style="html=1;aspect=fixed;strokeColor=none;shadow=0;align=center;verticalAlign=top;fillColor=#000000;shape=mxgraph.gcp2.view_list" vertex="1" parent="1">
          <mxGeometry x="259.4" y="777.5" width="16.21" height="20.01" as="geometry"/>
        </mxCell>
        <mxCell id="yhGkoqOSeWeYSa07yg06-58" value="" style="rounded=0;whiteSpace=wrap;html=1;fillColor=#FFFFFF;" vertex="1" parent="1">
          <mxGeometry x="111" y="810" width="180" height="40" as="geometry"/>
        </mxCell>
        <mxCell id="yhGkoqOSeWeYSa07yg06-59" value="" style="shape=image;html=1;verticalAlign=top;verticalLabelPosition=bottom;labelBackgroundColor=#ffffff;imageAspect=0;aspect=fixed;image=https://cdn3.iconfinder.com/data/icons/google-material-design-icons/48/ic_dashboard_48px-128.png;fillColor=#FFFFFF;" vertex="1" parent="1">
          <mxGeometry x="237" y="818" width="24" height="24" as="geometry"/>
        </mxCell>
        <mxCell id="yhGkoqOSeWeYSa07yg06-60" value="" style="shape=image;html=1;verticalAlign=top;verticalLabelPosition=bottom;labelBackgroundColor=#ffffff;imageAspect=0;aspect=fixed;image=https://cdn4.iconfinder.com/data/icons/evil-icons-user-interface/64/picture-128.png;fillColor=#FFFFFF;" vertex="1" parent="1">
          <mxGeometry x="133" y="816" width="28" height="28" as="geometry"/>
        </mxCell>
        <mxCell id="yhGkoqOSeWeYSa07yg06-61" value="" style="endArrow=classic;html=1;exitX=0.5;exitY=1;exitDx=0;exitDy=0;entryX=0.75;entryY=0.005;entryDx=0;entryDy=0;entryPerimeter=0;" edge="1" parent="1" source="yhGkoqOSeWeYSa07yg06-22" target="yhGkoqOSeWeYSa07yg06-24">
          <mxGeometry width="50" height="50" relative="1" as="geometry">
            <mxPoint x="400" y="497.06" as="sourcePoint"/>
            <mxPoint x="330" y="490" as="targetPoint"/>
          </mxGeometry>
        </mxCell>
        <mxCell id="yhGkoqOSeWeYSa07yg06-62" value="" style="verticalLabelPosition=bottom;verticalAlign=top;html=1;shadow=0;dashed=0;strokeWidth=1;shape=mxgraph.android.phone2;strokeColor=#c0c0c0;fillColor=#FFFFFF;" vertex="1" parent="1">
          <mxGeometry x="480" y="498" width="200" height="390" as="geometry"/>
        </mxCell>
        <mxCell id="yhGkoqOSeWeYSa07yg06-63" value="" style="strokeWidth=1;html=1;shadow=0;dashed=0;shape=mxgraph.android.statusBar;align=center;fillColor=#000000;strokeColor=#ffffff;fontColor=#ffffff;fontSize=10;" vertex="1" parent="1">
          <mxGeometry x="488.22" y="530" width="183.57" height="15.825" as="geometry"/>
        </mxCell>
        <mxCell id="yhGkoqOSeWeYSa07yg06-64" value="" style="rounded=0;whiteSpace=wrap;html=1;fillColor=#FFFFFF;" vertex="1" parent="1">
          <mxGeometry x="490.01" y="545.83" width="180" height="30" as="geometry"/>
        </mxCell>
        <mxCell id="yhGkoqOSeWeYSa07yg06-65" value="" style="shape=image;html=1;verticalAlign=top;verticalLabelPosition=bottom;labelBackgroundColor=#ffffff;imageAspect=0;aspect=fixed;image=https://cdn2.iconfinder.com/data/icons/arrows-and-universal-actions-icon-set/256/more_circle-128.png;fillColor=#FFFFFF;direction=south;" vertex="1" parent="1">
          <mxGeometry x="644" y="551.83" width="18" height="18" as="geometry"/>
        </mxCell>
        <mxCell id="yhGkoqOSeWeYSa07yg06-66" value="Dashboard" style="text;html=1;align=center;verticalAlign=middle;resizable=0;points=[];autosize=1;" vertex="1" parent="1">
          <mxGeometry x="491" y="550.83" width="70" height="20" as="geometry"/>
        </mxCell>
        <mxCell id="yhGkoqOSeWeYSa07yg06-70" value="" style="rounded=0;whiteSpace=wrap;html=1;fillColor=#FFFFFF;" vertex="1" parent="1">
          <mxGeometry x="491" y="810" width="180" height="40" as="geometry"/>
        </mxCell>
        <mxCell id="yhGkoqOSeWeYSa07yg06-71" value="" style="shape=image;html=1;verticalAlign=top;verticalLabelPosition=bottom;labelBackgroundColor=#ffffff;imageAspect=0;aspect=fixed;image=https://cdn3.iconfinder.com/data/icons/google-material-design-icons/48/ic_dashboard_48px-128.png;fillColor=#FFFFFF;" vertex="1" parent="1">
          <mxGeometry x="617" y="818" width="24" height="24" as="geometry"/>
        </mxCell>
        <mxCell id="yhGkoqOSeWeYSa07yg06-72" value="" style="shape=image;html=1;verticalAlign=top;verticalLabelPosition=bottom;labelBackgroundColor=#ffffff;imageAspect=0;aspect=fixed;image=https://cdn4.iconfinder.com/data/icons/evil-icons-user-interface/64/picture-128.png;fillColor=#FFFFFF;" vertex="1" parent="1">
          <mxGeometry x="513" y="816" width="28" height="28" as="geometry"/>
        </mxCell>
        <mxCell id="yhGkoqOSeWeYSa07yg06-68" value="" style="ellipse;whiteSpace=wrap;html=1;aspect=fixed;fillColor=#FFFFFF;" vertex="1" parent="1">
          <mxGeometry x="635.01" y="771" width="35" height="35" as="geometry"/>
        </mxCell>
        <mxCell id="yhGkoqOSeWeYSa07yg06-54" value="" style="shape=image;html=1;verticalAlign=top;verticalLabelPosition=bottom;labelBackgroundColor=#ffffff;imageAspect=0;aspect=fixed;image=https://cdn2.iconfinder.com/data/icons/user-interface-outline-10/32/22-Photo-128.png;fillColor=#FFFFFF;" vertex="1" parent="1">
          <mxGeometry x="642.51" y="778.5" width="20" height="20" as="geometry"/>
        </mxCell>
        <mxCell id="yhGkoqOSeWeYSa07yg06-133" value="" style="endArrow=classic;html=1;" edge="1" parent="1">
          <mxGeometry width="50" height="50" relative="1" as="geometry">
            <mxPoint x="410" y="440" as="sourcePoint"/>
            <mxPoint x="560" y="490" as="targetPoint"/>
          </mxGeometry>
        </mxCell>
        <mxCell id="yhGkoqOSeWeYSa07yg06-134" value="Dashboard Button opens Grid or list view." style="whiteSpace=wrap;html=1;shape=mxgraph.basic.rectCallout;dx=39;dy=65;boundedLbl=1;fillColor=#FFFFFF;" vertex="1" parent="1">
          <mxGeometry x="660" y="260" width="160" height="100" as="geometry"/>
        </mxCell>
        <mxCell id="yhGkoqOSeWeYSa07yg06-135" value="Opens list view" style="whiteSpace=wrap;html=1;shape=mxgraph.basic.rectCallout;dx=30;dy=15;boundedLbl=1;fillColor=#FFFFFF;" vertex="1" parent="1">
          <mxGeometry x="261" y="720" width="100" height="60" as="geometry"/>
        </mxCell>
        <mxCell id="yhGkoqOSeWeYSa07yg06-136" value="Opens grid view" style="whiteSpace=wrap;html=1;shape=mxgraph.basic.rectCallout;dx=30;dy=15;boundedLbl=1;fillColor=#FFFFFF;" vertex="1" parent="1">
          <mxGeometry x="650" y="718.5" width="100" height="60" as="geometry"/>
        </mxCell>
      </root>
    </mxGraphModel>
  </diagram>
</mxfile>
